G75*
%MOIN*%
%OFA0B0*%
%FSLAX25Y25*%
%IPPOS*%
%LPD*%
%AMOC8*
5,1,8,0,0,1.08239X$1,22.5*
%
%ADD10C,0.00000*%
%ADD11C,0.00600*%
%ADD12C,0.00500*%
%ADD13R,0.03400X0.02400*%
%ADD14C,0.01200*%
%ADD15C,0.00300*%
%ADD16C,0.00800*%
%ADD17C,0.01000*%
%ADD18C,0.00400*%
D10*
X0005929Y0001000D02*
X0005929Y0205961D01*
X0254630Y0205961D01*
X0254630Y0001000D01*
X0005929Y0001000D01*
X0011460Y0008500D02*
X0011462Y0008588D01*
X0011468Y0008676D01*
X0011478Y0008764D01*
X0011492Y0008852D01*
X0011509Y0008938D01*
X0011531Y0009024D01*
X0011556Y0009108D01*
X0011586Y0009192D01*
X0011618Y0009274D01*
X0011655Y0009354D01*
X0011695Y0009433D01*
X0011739Y0009510D01*
X0011786Y0009585D01*
X0011836Y0009657D01*
X0011890Y0009728D01*
X0011946Y0009795D01*
X0012006Y0009861D01*
X0012068Y0009923D01*
X0012134Y0009983D01*
X0012201Y0010039D01*
X0012272Y0010093D01*
X0012344Y0010143D01*
X0012419Y0010190D01*
X0012496Y0010234D01*
X0012575Y0010274D01*
X0012655Y0010311D01*
X0012737Y0010343D01*
X0012821Y0010373D01*
X0012905Y0010398D01*
X0012991Y0010420D01*
X0013077Y0010437D01*
X0013165Y0010451D01*
X0013253Y0010461D01*
X0013341Y0010467D01*
X0013429Y0010469D01*
X0013517Y0010467D01*
X0013605Y0010461D01*
X0013693Y0010451D01*
X0013781Y0010437D01*
X0013867Y0010420D01*
X0013953Y0010398D01*
X0014037Y0010373D01*
X0014121Y0010343D01*
X0014203Y0010311D01*
X0014283Y0010274D01*
X0014362Y0010234D01*
X0014439Y0010190D01*
X0014514Y0010143D01*
X0014586Y0010093D01*
X0014657Y0010039D01*
X0014724Y0009983D01*
X0014790Y0009923D01*
X0014852Y0009861D01*
X0014912Y0009795D01*
X0014968Y0009728D01*
X0015022Y0009657D01*
X0015072Y0009585D01*
X0015119Y0009510D01*
X0015163Y0009433D01*
X0015203Y0009354D01*
X0015240Y0009274D01*
X0015272Y0009192D01*
X0015302Y0009108D01*
X0015327Y0009024D01*
X0015349Y0008938D01*
X0015366Y0008852D01*
X0015380Y0008764D01*
X0015390Y0008676D01*
X0015396Y0008588D01*
X0015398Y0008500D01*
X0015396Y0008412D01*
X0015390Y0008324D01*
X0015380Y0008236D01*
X0015366Y0008148D01*
X0015349Y0008062D01*
X0015327Y0007976D01*
X0015302Y0007892D01*
X0015272Y0007808D01*
X0015240Y0007726D01*
X0015203Y0007646D01*
X0015163Y0007567D01*
X0015119Y0007490D01*
X0015072Y0007415D01*
X0015022Y0007343D01*
X0014968Y0007272D01*
X0014912Y0007205D01*
X0014852Y0007139D01*
X0014790Y0007077D01*
X0014724Y0007017D01*
X0014657Y0006961D01*
X0014586Y0006907D01*
X0014514Y0006857D01*
X0014439Y0006810D01*
X0014362Y0006766D01*
X0014283Y0006726D01*
X0014203Y0006689D01*
X0014121Y0006657D01*
X0014037Y0006627D01*
X0013953Y0006602D01*
X0013867Y0006580D01*
X0013781Y0006563D01*
X0013693Y0006549D01*
X0013605Y0006539D01*
X0013517Y0006533D01*
X0013429Y0006531D01*
X0013341Y0006533D01*
X0013253Y0006539D01*
X0013165Y0006549D01*
X0013077Y0006563D01*
X0012991Y0006580D01*
X0012905Y0006602D01*
X0012821Y0006627D01*
X0012737Y0006657D01*
X0012655Y0006689D01*
X0012575Y0006726D01*
X0012496Y0006766D01*
X0012419Y0006810D01*
X0012344Y0006857D01*
X0012272Y0006907D01*
X0012201Y0006961D01*
X0012134Y0007017D01*
X0012068Y0007077D01*
X0012006Y0007139D01*
X0011946Y0007205D01*
X0011890Y0007272D01*
X0011836Y0007343D01*
X0011786Y0007415D01*
X0011739Y0007490D01*
X0011695Y0007567D01*
X0011655Y0007646D01*
X0011618Y0007726D01*
X0011586Y0007808D01*
X0011556Y0007892D01*
X0011531Y0007976D01*
X0011509Y0008062D01*
X0011492Y0008148D01*
X0011478Y0008236D01*
X0011468Y0008324D01*
X0011462Y0008412D01*
X0011460Y0008500D01*
X0236460Y0193500D02*
X0236462Y0193588D01*
X0236468Y0193676D01*
X0236478Y0193764D01*
X0236492Y0193852D01*
X0236509Y0193938D01*
X0236531Y0194024D01*
X0236556Y0194108D01*
X0236586Y0194192D01*
X0236618Y0194274D01*
X0236655Y0194354D01*
X0236695Y0194433D01*
X0236739Y0194510D01*
X0236786Y0194585D01*
X0236836Y0194657D01*
X0236890Y0194728D01*
X0236946Y0194795D01*
X0237006Y0194861D01*
X0237068Y0194923D01*
X0237134Y0194983D01*
X0237201Y0195039D01*
X0237272Y0195093D01*
X0237344Y0195143D01*
X0237419Y0195190D01*
X0237496Y0195234D01*
X0237575Y0195274D01*
X0237655Y0195311D01*
X0237737Y0195343D01*
X0237821Y0195373D01*
X0237905Y0195398D01*
X0237991Y0195420D01*
X0238077Y0195437D01*
X0238165Y0195451D01*
X0238253Y0195461D01*
X0238341Y0195467D01*
X0238429Y0195469D01*
X0238517Y0195467D01*
X0238605Y0195461D01*
X0238693Y0195451D01*
X0238781Y0195437D01*
X0238867Y0195420D01*
X0238953Y0195398D01*
X0239037Y0195373D01*
X0239121Y0195343D01*
X0239203Y0195311D01*
X0239283Y0195274D01*
X0239362Y0195234D01*
X0239439Y0195190D01*
X0239514Y0195143D01*
X0239586Y0195093D01*
X0239657Y0195039D01*
X0239724Y0194983D01*
X0239790Y0194923D01*
X0239852Y0194861D01*
X0239912Y0194795D01*
X0239968Y0194728D01*
X0240022Y0194657D01*
X0240072Y0194585D01*
X0240119Y0194510D01*
X0240163Y0194433D01*
X0240203Y0194354D01*
X0240240Y0194274D01*
X0240272Y0194192D01*
X0240302Y0194108D01*
X0240327Y0194024D01*
X0240349Y0193938D01*
X0240366Y0193852D01*
X0240380Y0193764D01*
X0240390Y0193676D01*
X0240396Y0193588D01*
X0240398Y0193500D01*
X0240396Y0193412D01*
X0240390Y0193324D01*
X0240380Y0193236D01*
X0240366Y0193148D01*
X0240349Y0193062D01*
X0240327Y0192976D01*
X0240302Y0192892D01*
X0240272Y0192808D01*
X0240240Y0192726D01*
X0240203Y0192646D01*
X0240163Y0192567D01*
X0240119Y0192490D01*
X0240072Y0192415D01*
X0240022Y0192343D01*
X0239968Y0192272D01*
X0239912Y0192205D01*
X0239852Y0192139D01*
X0239790Y0192077D01*
X0239724Y0192017D01*
X0239657Y0191961D01*
X0239586Y0191907D01*
X0239514Y0191857D01*
X0239439Y0191810D01*
X0239362Y0191766D01*
X0239283Y0191726D01*
X0239203Y0191689D01*
X0239121Y0191657D01*
X0239037Y0191627D01*
X0238953Y0191602D01*
X0238867Y0191580D01*
X0238781Y0191563D01*
X0238693Y0191549D01*
X0238605Y0191539D01*
X0238517Y0191533D01*
X0238429Y0191531D01*
X0238341Y0191533D01*
X0238253Y0191539D01*
X0238165Y0191549D01*
X0238077Y0191563D01*
X0237991Y0191580D01*
X0237905Y0191602D01*
X0237821Y0191627D01*
X0237737Y0191657D01*
X0237655Y0191689D01*
X0237575Y0191726D01*
X0237496Y0191766D01*
X0237419Y0191810D01*
X0237344Y0191857D01*
X0237272Y0191907D01*
X0237201Y0191961D01*
X0237134Y0192017D01*
X0237068Y0192077D01*
X0237006Y0192139D01*
X0236946Y0192205D01*
X0236890Y0192272D01*
X0236836Y0192343D01*
X0236786Y0192415D01*
X0236739Y0192490D01*
X0236695Y0192567D01*
X0236655Y0192646D01*
X0236618Y0192726D01*
X0236586Y0192808D01*
X0236556Y0192892D01*
X0236531Y0192976D01*
X0236509Y0193062D01*
X0236492Y0193148D01*
X0236478Y0193236D01*
X0236468Y0193324D01*
X0236462Y0193412D01*
X0236460Y0193500D01*
X0243960Y0011000D02*
X0243962Y0011088D01*
X0243968Y0011176D01*
X0243978Y0011264D01*
X0243992Y0011352D01*
X0244009Y0011438D01*
X0244031Y0011524D01*
X0244056Y0011608D01*
X0244086Y0011692D01*
X0244118Y0011774D01*
X0244155Y0011854D01*
X0244195Y0011933D01*
X0244239Y0012010D01*
X0244286Y0012085D01*
X0244336Y0012157D01*
X0244390Y0012228D01*
X0244446Y0012295D01*
X0244506Y0012361D01*
X0244568Y0012423D01*
X0244634Y0012483D01*
X0244701Y0012539D01*
X0244772Y0012593D01*
X0244844Y0012643D01*
X0244919Y0012690D01*
X0244996Y0012734D01*
X0245075Y0012774D01*
X0245155Y0012811D01*
X0245237Y0012843D01*
X0245321Y0012873D01*
X0245405Y0012898D01*
X0245491Y0012920D01*
X0245577Y0012937D01*
X0245665Y0012951D01*
X0245753Y0012961D01*
X0245841Y0012967D01*
X0245929Y0012969D01*
X0246017Y0012967D01*
X0246105Y0012961D01*
X0246193Y0012951D01*
X0246281Y0012937D01*
X0246367Y0012920D01*
X0246453Y0012898D01*
X0246537Y0012873D01*
X0246621Y0012843D01*
X0246703Y0012811D01*
X0246783Y0012774D01*
X0246862Y0012734D01*
X0246939Y0012690D01*
X0247014Y0012643D01*
X0247086Y0012593D01*
X0247157Y0012539D01*
X0247224Y0012483D01*
X0247290Y0012423D01*
X0247352Y0012361D01*
X0247412Y0012295D01*
X0247468Y0012228D01*
X0247522Y0012157D01*
X0247572Y0012085D01*
X0247619Y0012010D01*
X0247663Y0011933D01*
X0247703Y0011854D01*
X0247740Y0011774D01*
X0247772Y0011692D01*
X0247802Y0011608D01*
X0247827Y0011524D01*
X0247849Y0011438D01*
X0247866Y0011352D01*
X0247880Y0011264D01*
X0247890Y0011176D01*
X0247896Y0011088D01*
X0247898Y0011000D01*
X0247896Y0010912D01*
X0247890Y0010824D01*
X0247880Y0010736D01*
X0247866Y0010648D01*
X0247849Y0010562D01*
X0247827Y0010476D01*
X0247802Y0010392D01*
X0247772Y0010308D01*
X0247740Y0010226D01*
X0247703Y0010146D01*
X0247663Y0010067D01*
X0247619Y0009990D01*
X0247572Y0009915D01*
X0247522Y0009843D01*
X0247468Y0009772D01*
X0247412Y0009705D01*
X0247352Y0009639D01*
X0247290Y0009577D01*
X0247224Y0009517D01*
X0247157Y0009461D01*
X0247086Y0009407D01*
X0247014Y0009357D01*
X0246939Y0009310D01*
X0246862Y0009266D01*
X0246783Y0009226D01*
X0246703Y0009189D01*
X0246621Y0009157D01*
X0246537Y0009127D01*
X0246453Y0009102D01*
X0246367Y0009080D01*
X0246281Y0009063D01*
X0246193Y0009049D01*
X0246105Y0009039D01*
X0246017Y0009033D01*
X0245929Y0009031D01*
X0245841Y0009033D01*
X0245753Y0009039D01*
X0245665Y0009049D01*
X0245577Y0009063D01*
X0245491Y0009080D01*
X0245405Y0009102D01*
X0245321Y0009127D01*
X0245237Y0009157D01*
X0245155Y0009189D01*
X0245075Y0009226D01*
X0244996Y0009266D01*
X0244919Y0009310D01*
X0244844Y0009357D01*
X0244772Y0009407D01*
X0244701Y0009461D01*
X0244634Y0009517D01*
X0244568Y0009577D01*
X0244506Y0009639D01*
X0244446Y0009705D01*
X0244390Y0009772D01*
X0244336Y0009843D01*
X0244286Y0009915D01*
X0244239Y0009990D01*
X0244195Y0010067D01*
X0244155Y0010146D01*
X0244118Y0010226D01*
X0244086Y0010308D01*
X0244056Y0010392D01*
X0244031Y0010476D01*
X0244009Y0010562D01*
X0243992Y0010648D01*
X0243978Y0010736D01*
X0243968Y0010824D01*
X0243962Y0010912D01*
X0243960Y0011000D01*
D11*
X0173429Y0047500D02*
X0173429Y0054500D01*
X0173427Y0054560D01*
X0173422Y0054621D01*
X0173413Y0054680D01*
X0173400Y0054739D01*
X0173384Y0054798D01*
X0173364Y0054855D01*
X0173341Y0054910D01*
X0173314Y0054965D01*
X0173285Y0055017D01*
X0173252Y0055068D01*
X0173216Y0055117D01*
X0173178Y0055163D01*
X0173136Y0055207D01*
X0173092Y0055249D01*
X0173046Y0055287D01*
X0172997Y0055323D01*
X0172946Y0055356D01*
X0172894Y0055385D01*
X0172839Y0055412D01*
X0172784Y0055435D01*
X0172727Y0055455D01*
X0172668Y0055471D01*
X0172609Y0055484D01*
X0172550Y0055493D01*
X0172489Y0055498D01*
X0172429Y0055500D01*
X0170929Y0055500D01*
X0170429Y0055000D01*
X0151429Y0055000D01*
X0150929Y0055500D01*
X0149429Y0055500D01*
X0149369Y0055498D01*
X0149308Y0055493D01*
X0149249Y0055484D01*
X0149190Y0055471D01*
X0149131Y0055455D01*
X0149074Y0055435D01*
X0149019Y0055412D01*
X0148964Y0055385D01*
X0148912Y0055356D01*
X0148861Y0055323D01*
X0148812Y0055287D01*
X0148766Y0055249D01*
X0148722Y0055207D01*
X0148680Y0055163D01*
X0148642Y0055117D01*
X0148606Y0055068D01*
X0148573Y0055017D01*
X0148544Y0054965D01*
X0148517Y0054910D01*
X0148494Y0054855D01*
X0148474Y0054798D01*
X0148458Y0054739D01*
X0148445Y0054680D01*
X0148436Y0054621D01*
X0148431Y0054560D01*
X0148429Y0054500D01*
X0148429Y0047500D01*
X0148431Y0047440D01*
X0148436Y0047379D01*
X0148445Y0047320D01*
X0148458Y0047261D01*
X0148474Y0047202D01*
X0148494Y0047145D01*
X0148517Y0047090D01*
X0148544Y0047035D01*
X0148573Y0046983D01*
X0148606Y0046932D01*
X0148642Y0046883D01*
X0148680Y0046837D01*
X0148722Y0046793D01*
X0148766Y0046751D01*
X0148812Y0046713D01*
X0148861Y0046677D01*
X0148912Y0046644D01*
X0148964Y0046615D01*
X0149019Y0046588D01*
X0149074Y0046565D01*
X0149131Y0046545D01*
X0149190Y0046529D01*
X0149249Y0046516D01*
X0149308Y0046507D01*
X0149369Y0046502D01*
X0149429Y0046500D01*
X0150929Y0046500D01*
X0151429Y0047000D01*
X0170429Y0047000D01*
X0170929Y0046500D01*
X0172429Y0046500D01*
X0172489Y0046502D01*
X0172550Y0046507D01*
X0172609Y0046516D01*
X0172668Y0046529D01*
X0172727Y0046545D01*
X0172784Y0046565D01*
X0172839Y0046588D01*
X0172894Y0046615D01*
X0172946Y0046644D01*
X0172997Y0046677D01*
X0173046Y0046713D01*
X0173092Y0046751D01*
X0173136Y0046793D01*
X0173178Y0046837D01*
X0173216Y0046883D01*
X0173252Y0046932D01*
X0173285Y0046983D01*
X0173314Y0047035D01*
X0173341Y0047090D01*
X0173364Y0047145D01*
X0173384Y0047202D01*
X0173400Y0047261D01*
X0173413Y0047320D01*
X0173422Y0047379D01*
X0173427Y0047440D01*
X0173429Y0047500D01*
X0144429Y0043500D02*
X0143429Y0044500D01*
X0129929Y0044500D01*
X0124929Y0044500D02*
X0118429Y0044500D01*
X0117429Y0043500D01*
X0117429Y0041000D01*
X0117429Y0033500D01*
X0118929Y0035000D02*
X0118929Y0041000D01*
X0117429Y0041000D01*
X0124929Y0032500D02*
X0127929Y0032500D01*
X0127929Y0029500D01*
X0129429Y0029500D01*
X0130929Y0028000D01*
X0130929Y0025000D01*
X0133929Y0025000D01*
X0133929Y0028000D01*
X0135429Y0029500D01*
X0136929Y0029500D01*
X0139929Y0029500D01*
X0139929Y0032500D01*
X0136929Y0032500D01*
X0135429Y0032500D01*
X0133929Y0034000D01*
X0133929Y0037000D01*
X0130929Y0037000D01*
X0130929Y0034000D01*
X0129429Y0032500D01*
X0127929Y0032500D01*
X0127929Y0029500D02*
X0124929Y0029500D01*
X0124929Y0032500D01*
X0118929Y0027000D02*
X0118929Y0021000D01*
X0117429Y0021000D01*
X0117429Y0018500D01*
X0118429Y0017500D01*
X0124929Y0017500D01*
X0129929Y0017500D02*
X0143429Y0017500D01*
X0144429Y0018500D01*
X0144429Y0043500D01*
X0136929Y0032500D02*
X0136929Y0029500D01*
X0117429Y0028500D02*
X0117429Y0021000D01*
X0105929Y0034500D02*
X0105929Y0057500D01*
X0065929Y0057500D01*
X0065929Y0050000D01*
X0066055Y0049998D01*
X0066180Y0049992D01*
X0066305Y0049982D01*
X0066430Y0049968D01*
X0066555Y0049951D01*
X0066679Y0049929D01*
X0066802Y0049904D01*
X0066924Y0049874D01*
X0067045Y0049841D01*
X0067165Y0049804D01*
X0067284Y0049764D01*
X0067401Y0049719D01*
X0067518Y0049671D01*
X0067632Y0049619D01*
X0067745Y0049564D01*
X0067856Y0049505D01*
X0067965Y0049443D01*
X0068072Y0049377D01*
X0068177Y0049308D01*
X0068280Y0049236D01*
X0068381Y0049161D01*
X0068479Y0049082D01*
X0068574Y0049000D01*
X0068667Y0048916D01*
X0068757Y0048828D01*
X0068845Y0048738D01*
X0068929Y0048645D01*
X0069011Y0048550D01*
X0069090Y0048452D01*
X0069165Y0048351D01*
X0069237Y0048248D01*
X0069306Y0048143D01*
X0069372Y0048036D01*
X0069434Y0047927D01*
X0069493Y0047816D01*
X0069548Y0047703D01*
X0069600Y0047589D01*
X0069648Y0047472D01*
X0069693Y0047355D01*
X0069733Y0047236D01*
X0069770Y0047116D01*
X0069803Y0046995D01*
X0069833Y0046873D01*
X0069858Y0046750D01*
X0069880Y0046626D01*
X0069897Y0046501D01*
X0069911Y0046376D01*
X0069921Y0046251D01*
X0069927Y0046126D01*
X0069929Y0046000D01*
X0069927Y0045874D01*
X0069921Y0045749D01*
X0069911Y0045624D01*
X0069897Y0045499D01*
X0069880Y0045374D01*
X0069858Y0045250D01*
X0069833Y0045127D01*
X0069803Y0045005D01*
X0069770Y0044884D01*
X0069733Y0044764D01*
X0069693Y0044645D01*
X0069648Y0044528D01*
X0069600Y0044411D01*
X0069548Y0044297D01*
X0069493Y0044184D01*
X0069434Y0044073D01*
X0069372Y0043964D01*
X0069306Y0043857D01*
X0069237Y0043752D01*
X0069165Y0043649D01*
X0069090Y0043548D01*
X0069011Y0043450D01*
X0068929Y0043355D01*
X0068845Y0043262D01*
X0068757Y0043172D01*
X0068667Y0043084D01*
X0068574Y0043000D01*
X0068479Y0042918D01*
X0068381Y0042839D01*
X0068280Y0042764D01*
X0068177Y0042692D01*
X0068072Y0042623D01*
X0067965Y0042557D01*
X0067856Y0042495D01*
X0067745Y0042436D01*
X0067632Y0042381D01*
X0067518Y0042329D01*
X0067401Y0042281D01*
X0067284Y0042236D01*
X0067165Y0042196D01*
X0067045Y0042159D01*
X0066924Y0042126D01*
X0066802Y0042096D01*
X0066679Y0042071D01*
X0066555Y0042049D01*
X0066430Y0042032D01*
X0066305Y0042018D01*
X0066180Y0042008D01*
X0066055Y0042002D01*
X0065929Y0042000D01*
X0065929Y0034500D01*
X0105929Y0034500D01*
X0102429Y0066500D02*
X0100929Y0066500D01*
X0100429Y0067000D01*
X0081429Y0067000D01*
X0080929Y0066500D01*
X0079429Y0066500D01*
X0079369Y0066502D01*
X0079308Y0066507D01*
X0079249Y0066516D01*
X0079190Y0066529D01*
X0079131Y0066545D01*
X0079074Y0066565D01*
X0079019Y0066588D01*
X0078964Y0066615D01*
X0078912Y0066644D01*
X0078861Y0066677D01*
X0078812Y0066713D01*
X0078766Y0066751D01*
X0078722Y0066793D01*
X0078680Y0066837D01*
X0078642Y0066883D01*
X0078606Y0066932D01*
X0078573Y0066983D01*
X0078544Y0067035D01*
X0078517Y0067090D01*
X0078494Y0067145D01*
X0078474Y0067202D01*
X0078458Y0067261D01*
X0078445Y0067320D01*
X0078436Y0067379D01*
X0078431Y0067440D01*
X0078429Y0067500D01*
X0078429Y0074500D01*
X0078431Y0074560D01*
X0078436Y0074621D01*
X0078445Y0074680D01*
X0078458Y0074739D01*
X0078474Y0074798D01*
X0078494Y0074855D01*
X0078517Y0074910D01*
X0078544Y0074965D01*
X0078573Y0075017D01*
X0078606Y0075068D01*
X0078642Y0075117D01*
X0078680Y0075163D01*
X0078722Y0075207D01*
X0078766Y0075249D01*
X0078812Y0075287D01*
X0078861Y0075323D01*
X0078912Y0075356D01*
X0078964Y0075385D01*
X0079019Y0075412D01*
X0079074Y0075435D01*
X0079131Y0075455D01*
X0079190Y0075471D01*
X0079249Y0075484D01*
X0079308Y0075493D01*
X0079369Y0075498D01*
X0079429Y0075500D01*
X0080929Y0075500D01*
X0081429Y0075000D01*
X0100429Y0075000D01*
X0100929Y0075500D01*
X0102429Y0075500D01*
X0102489Y0075498D01*
X0102550Y0075493D01*
X0102609Y0075484D01*
X0102668Y0075471D01*
X0102727Y0075455D01*
X0102784Y0075435D01*
X0102839Y0075412D01*
X0102894Y0075385D01*
X0102946Y0075356D01*
X0102997Y0075323D01*
X0103046Y0075287D01*
X0103092Y0075249D01*
X0103136Y0075207D01*
X0103178Y0075163D01*
X0103216Y0075117D01*
X0103252Y0075068D01*
X0103285Y0075017D01*
X0103314Y0074965D01*
X0103341Y0074910D01*
X0103364Y0074855D01*
X0103384Y0074798D01*
X0103400Y0074739D01*
X0103413Y0074680D01*
X0103422Y0074621D01*
X0103427Y0074560D01*
X0103429Y0074500D01*
X0103429Y0067500D01*
X0103427Y0067440D01*
X0103422Y0067379D01*
X0103413Y0067320D01*
X0103400Y0067261D01*
X0103384Y0067202D01*
X0103364Y0067145D01*
X0103341Y0067090D01*
X0103314Y0067035D01*
X0103285Y0066983D01*
X0103252Y0066932D01*
X0103216Y0066883D01*
X0103178Y0066837D01*
X0103136Y0066793D01*
X0103092Y0066751D01*
X0103046Y0066713D01*
X0102997Y0066677D01*
X0102946Y0066644D01*
X0102894Y0066615D01*
X0102839Y0066588D01*
X0102784Y0066565D01*
X0102727Y0066545D01*
X0102668Y0066529D01*
X0102609Y0066516D01*
X0102550Y0066507D01*
X0102489Y0066502D01*
X0102429Y0066500D01*
X0117429Y0068500D02*
X0117429Y0071000D01*
X0117429Y0078500D01*
X0118929Y0077000D02*
X0118929Y0071000D01*
X0117429Y0071000D01*
X0117429Y0068500D02*
X0118429Y0067500D01*
X0124929Y0067500D01*
X0129929Y0067500D02*
X0143429Y0067500D01*
X0144429Y0068500D01*
X0144429Y0093500D01*
X0143429Y0094500D01*
X0129929Y0094500D01*
X0124929Y0094500D02*
X0118429Y0094500D01*
X0117429Y0093500D01*
X0117429Y0091000D01*
X0117429Y0083500D01*
X0118929Y0085000D02*
X0118929Y0091000D01*
X0117429Y0091000D01*
X0124929Y0082500D02*
X0127929Y0082500D01*
X0127929Y0079500D01*
X0129429Y0079500D01*
X0130929Y0078000D01*
X0130929Y0075000D01*
X0133929Y0075000D01*
X0133929Y0078000D01*
X0135429Y0079500D01*
X0136929Y0079500D01*
X0139929Y0079500D01*
X0139929Y0082500D01*
X0136929Y0082500D01*
X0135429Y0082500D01*
X0133929Y0084000D01*
X0133929Y0087000D01*
X0130929Y0087000D01*
X0130929Y0084000D01*
X0129429Y0082500D01*
X0127929Y0082500D01*
X0127929Y0079500D02*
X0124929Y0079500D01*
X0124929Y0082500D01*
X0136929Y0082500D02*
X0136929Y0079500D01*
X0143429Y0117500D02*
X0129929Y0117500D01*
X0124929Y0117500D02*
X0118429Y0117500D01*
X0117429Y0118500D01*
X0117429Y0121000D01*
X0117429Y0128500D01*
X0118929Y0127000D02*
X0118929Y0121000D01*
X0117429Y0121000D01*
X0124929Y0129500D02*
X0127929Y0129500D01*
X0129429Y0129500D01*
X0130929Y0128000D01*
X0130929Y0125000D01*
X0133929Y0125000D01*
X0133929Y0128000D01*
X0135429Y0129500D01*
X0136929Y0129500D01*
X0139929Y0129500D01*
X0139929Y0132500D01*
X0136929Y0132500D01*
X0135429Y0132500D01*
X0133929Y0134000D01*
X0133929Y0137000D01*
X0130929Y0137000D01*
X0130929Y0134000D01*
X0129429Y0132500D01*
X0127929Y0132500D01*
X0124929Y0132500D01*
X0124929Y0129500D01*
X0127929Y0129500D02*
X0127929Y0132500D01*
X0136929Y0132500D02*
X0136929Y0129500D01*
X0144429Y0118500D02*
X0143429Y0117500D01*
X0144429Y0118500D02*
X0144429Y0143500D01*
X0143429Y0144500D01*
X0129929Y0144500D01*
X0124929Y0144500D02*
X0118429Y0144500D01*
X0117429Y0143500D01*
X0117429Y0141000D01*
X0117429Y0133500D01*
X0118929Y0135000D02*
X0118929Y0141000D01*
X0117429Y0141000D01*
X0105929Y0152500D02*
X0105929Y0129500D01*
X0065929Y0129500D01*
X0065929Y0137000D01*
X0066055Y0137002D01*
X0066180Y0137008D01*
X0066305Y0137018D01*
X0066430Y0137032D01*
X0066555Y0137049D01*
X0066679Y0137071D01*
X0066802Y0137096D01*
X0066924Y0137126D01*
X0067045Y0137159D01*
X0067165Y0137196D01*
X0067284Y0137236D01*
X0067401Y0137281D01*
X0067518Y0137329D01*
X0067632Y0137381D01*
X0067745Y0137436D01*
X0067856Y0137495D01*
X0067965Y0137557D01*
X0068072Y0137623D01*
X0068177Y0137692D01*
X0068280Y0137764D01*
X0068381Y0137839D01*
X0068479Y0137918D01*
X0068574Y0138000D01*
X0068667Y0138084D01*
X0068757Y0138172D01*
X0068845Y0138262D01*
X0068929Y0138355D01*
X0069011Y0138450D01*
X0069090Y0138548D01*
X0069165Y0138649D01*
X0069237Y0138752D01*
X0069306Y0138857D01*
X0069372Y0138964D01*
X0069434Y0139073D01*
X0069493Y0139184D01*
X0069548Y0139297D01*
X0069600Y0139411D01*
X0069648Y0139528D01*
X0069693Y0139645D01*
X0069733Y0139764D01*
X0069770Y0139884D01*
X0069803Y0140005D01*
X0069833Y0140127D01*
X0069858Y0140250D01*
X0069880Y0140374D01*
X0069897Y0140499D01*
X0069911Y0140624D01*
X0069921Y0140749D01*
X0069927Y0140874D01*
X0069929Y0141000D01*
X0069927Y0141126D01*
X0069921Y0141251D01*
X0069911Y0141376D01*
X0069897Y0141501D01*
X0069880Y0141626D01*
X0069858Y0141750D01*
X0069833Y0141873D01*
X0069803Y0141995D01*
X0069770Y0142116D01*
X0069733Y0142236D01*
X0069693Y0142355D01*
X0069648Y0142472D01*
X0069600Y0142589D01*
X0069548Y0142703D01*
X0069493Y0142816D01*
X0069434Y0142927D01*
X0069372Y0143036D01*
X0069306Y0143143D01*
X0069237Y0143248D01*
X0069165Y0143351D01*
X0069090Y0143452D01*
X0069011Y0143550D01*
X0068929Y0143645D01*
X0068845Y0143738D01*
X0068757Y0143828D01*
X0068667Y0143916D01*
X0068574Y0144000D01*
X0068479Y0144082D01*
X0068381Y0144161D01*
X0068280Y0144236D01*
X0068177Y0144308D01*
X0068072Y0144377D01*
X0067965Y0144443D01*
X0067856Y0144505D01*
X0067745Y0144564D01*
X0067632Y0144619D01*
X0067518Y0144671D01*
X0067401Y0144719D01*
X0067284Y0144764D01*
X0067165Y0144804D01*
X0067045Y0144841D01*
X0066924Y0144874D01*
X0066802Y0144904D01*
X0066679Y0144929D01*
X0066555Y0144951D01*
X0066430Y0144968D01*
X0066305Y0144982D01*
X0066180Y0144992D01*
X0066055Y0144998D01*
X0065929Y0145000D01*
X0065929Y0152500D01*
X0105929Y0152500D01*
X0102429Y0166500D02*
X0100929Y0166500D01*
X0100429Y0167000D01*
X0081429Y0167000D01*
X0080929Y0166500D01*
X0079429Y0166500D01*
X0079369Y0166502D01*
X0079308Y0166507D01*
X0079249Y0166516D01*
X0079190Y0166529D01*
X0079131Y0166545D01*
X0079074Y0166565D01*
X0079019Y0166588D01*
X0078964Y0166615D01*
X0078912Y0166644D01*
X0078861Y0166677D01*
X0078812Y0166713D01*
X0078766Y0166751D01*
X0078722Y0166793D01*
X0078680Y0166837D01*
X0078642Y0166883D01*
X0078606Y0166932D01*
X0078573Y0166983D01*
X0078544Y0167035D01*
X0078517Y0167090D01*
X0078494Y0167145D01*
X0078474Y0167202D01*
X0078458Y0167261D01*
X0078445Y0167320D01*
X0078436Y0167379D01*
X0078431Y0167440D01*
X0078429Y0167500D01*
X0078429Y0174500D01*
X0078431Y0174560D01*
X0078436Y0174621D01*
X0078445Y0174680D01*
X0078458Y0174739D01*
X0078474Y0174798D01*
X0078494Y0174855D01*
X0078517Y0174910D01*
X0078544Y0174965D01*
X0078573Y0175017D01*
X0078606Y0175068D01*
X0078642Y0175117D01*
X0078680Y0175163D01*
X0078722Y0175207D01*
X0078766Y0175249D01*
X0078812Y0175287D01*
X0078861Y0175323D01*
X0078912Y0175356D01*
X0078964Y0175385D01*
X0079019Y0175412D01*
X0079074Y0175435D01*
X0079131Y0175455D01*
X0079190Y0175471D01*
X0079249Y0175484D01*
X0079308Y0175493D01*
X0079369Y0175498D01*
X0079429Y0175500D01*
X0080929Y0175500D01*
X0081429Y0175000D01*
X0100429Y0175000D01*
X0100929Y0175500D01*
X0102429Y0175500D01*
X0102489Y0175498D01*
X0102550Y0175493D01*
X0102609Y0175484D01*
X0102668Y0175471D01*
X0102727Y0175455D01*
X0102784Y0175435D01*
X0102839Y0175412D01*
X0102894Y0175385D01*
X0102946Y0175356D01*
X0102997Y0175323D01*
X0103046Y0175287D01*
X0103092Y0175249D01*
X0103136Y0175207D01*
X0103178Y0175163D01*
X0103216Y0175117D01*
X0103252Y0175068D01*
X0103285Y0175017D01*
X0103314Y0174965D01*
X0103341Y0174910D01*
X0103364Y0174855D01*
X0103384Y0174798D01*
X0103400Y0174739D01*
X0103413Y0174680D01*
X0103422Y0174621D01*
X0103427Y0174560D01*
X0103429Y0174500D01*
X0103429Y0167500D01*
X0103427Y0167440D01*
X0103422Y0167379D01*
X0103413Y0167320D01*
X0103400Y0167261D01*
X0103384Y0167202D01*
X0103364Y0167145D01*
X0103341Y0167090D01*
X0103314Y0167035D01*
X0103285Y0166983D01*
X0103252Y0166932D01*
X0103216Y0166883D01*
X0103178Y0166837D01*
X0103136Y0166793D01*
X0103092Y0166751D01*
X0103046Y0166713D01*
X0102997Y0166677D01*
X0102946Y0166644D01*
X0102894Y0166615D01*
X0102839Y0166588D01*
X0102784Y0166565D01*
X0102727Y0166545D01*
X0102668Y0166529D01*
X0102609Y0166516D01*
X0102550Y0166507D01*
X0102489Y0166502D01*
X0102429Y0166500D01*
X0117429Y0171000D02*
X0117429Y0173500D01*
X0117429Y0181000D01*
X0118929Y0179500D02*
X0118929Y0173500D01*
X0117429Y0173500D01*
X0117429Y0171000D02*
X0118429Y0170000D01*
X0124929Y0170000D01*
X0129929Y0170000D02*
X0143429Y0170000D01*
X0144429Y0171000D01*
X0144429Y0196000D01*
X0143429Y0197000D01*
X0129929Y0197000D01*
X0124929Y0197000D02*
X0118429Y0197000D01*
X0117429Y0196000D01*
X0117429Y0193500D01*
X0117429Y0186000D01*
X0118929Y0187500D02*
X0118929Y0193500D01*
X0117429Y0193500D01*
X0124929Y0185000D02*
X0127929Y0185000D01*
X0127929Y0182000D01*
X0129429Y0182000D01*
X0130929Y0180500D01*
X0130929Y0177500D01*
X0133929Y0177500D01*
X0133929Y0180500D01*
X0135429Y0182000D01*
X0136929Y0182000D01*
X0139929Y0182000D01*
X0139929Y0185000D01*
X0136929Y0185000D01*
X0135429Y0185000D01*
X0133929Y0186500D01*
X0133929Y0189500D01*
X0130929Y0189500D01*
X0130929Y0186500D01*
X0129429Y0185000D01*
X0127929Y0185000D01*
X0124929Y0185000D02*
X0124929Y0182000D01*
X0127929Y0182000D01*
X0136929Y0182000D02*
X0136929Y0185000D01*
X0154429Y0170500D02*
X0155929Y0170500D01*
X0156429Y0170000D01*
X0175429Y0170000D01*
X0175929Y0170500D01*
X0177429Y0170500D01*
X0177489Y0170498D01*
X0177550Y0170493D01*
X0177609Y0170484D01*
X0177668Y0170471D01*
X0177727Y0170455D01*
X0177784Y0170435D01*
X0177839Y0170412D01*
X0177894Y0170385D01*
X0177946Y0170356D01*
X0177997Y0170323D01*
X0178046Y0170287D01*
X0178092Y0170249D01*
X0178136Y0170207D01*
X0178178Y0170163D01*
X0178216Y0170117D01*
X0178252Y0170068D01*
X0178285Y0170017D01*
X0178314Y0169965D01*
X0178341Y0169910D01*
X0178364Y0169855D01*
X0178384Y0169798D01*
X0178400Y0169739D01*
X0178413Y0169680D01*
X0178422Y0169621D01*
X0178427Y0169560D01*
X0178429Y0169500D01*
X0178429Y0162500D01*
X0178427Y0162440D01*
X0178422Y0162379D01*
X0178413Y0162320D01*
X0178400Y0162261D01*
X0178384Y0162202D01*
X0178364Y0162145D01*
X0178341Y0162090D01*
X0178314Y0162035D01*
X0178285Y0161983D01*
X0178252Y0161932D01*
X0178216Y0161883D01*
X0178178Y0161837D01*
X0178136Y0161793D01*
X0178092Y0161751D01*
X0178046Y0161713D01*
X0177997Y0161677D01*
X0177946Y0161644D01*
X0177894Y0161615D01*
X0177839Y0161588D01*
X0177784Y0161565D01*
X0177727Y0161545D01*
X0177668Y0161529D01*
X0177609Y0161516D01*
X0177550Y0161507D01*
X0177489Y0161502D01*
X0177429Y0161500D01*
X0175929Y0161500D01*
X0175429Y0162000D01*
X0156429Y0162000D01*
X0155929Y0161500D01*
X0154429Y0161500D01*
X0154369Y0161502D01*
X0154308Y0161507D01*
X0154249Y0161516D01*
X0154190Y0161529D01*
X0154131Y0161545D01*
X0154074Y0161565D01*
X0154019Y0161588D01*
X0153964Y0161615D01*
X0153912Y0161644D01*
X0153861Y0161677D01*
X0153812Y0161713D01*
X0153766Y0161751D01*
X0153722Y0161793D01*
X0153680Y0161837D01*
X0153642Y0161883D01*
X0153606Y0161932D01*
X0153573Y0161983D01*
X0153544Y0162035D01*
X0153517Y0162090D01*
X0153494Y0162145D01*
X0153474Y0162202D01*
X0153458Y0162261D01*
X0153445Y0162320D01*
X0153436Y0162379D01*
X0153431Y0162440D01*
X0153429Y0162500D01*
X0153429Y0169500D01*
X0153431Y0169560D01*
X0153436Y0169621D01*
X0153445Y0169680D01*
X0153458Y0169739D01*
X0153474Y0169798D01*
X0153494Y0169855D01*
X0153517Y0169910D01*
X0153544Y0169965D01*
X0153573Y0170017D01*
X0153606Y0170068D01*
X0153642Y0170117D01*
X0153680Y0170163D01*
X0153722Y0170207D01*
X0153766Y0170249D01*
X0153812Y0170287D01*
X0153861Y0170323D01*
X0153912Y0170356D01*
X0153964Y0170385D01*
X0154019Y0170412D01*
X0154074Y0170435D01*
X0154131Y0170455D01*
X0154190Y0170471D01*
X0154249Y0170484D01*
X0154308Y0170493D01*
X0154369Y0170498D01*
X0154429Y0170500D01*
X0186629Y0134000D02*
X0186629Y0109100D01*
X0195229Y0108000D02*
X0197129Y0108000D01*
X0204729Y0108000D02*
X0207129Y0108000D01*
X0214729Y0108000D02*
X0217129Y0108000D01*
X0225229Y0108000D02*
X0225229Y0134000D01*
X0217129Y0134000D02*
X0214729Y0134000D01*
X0207129Y0134000D02*
X0204729Y0134000D01*
X0197129Y0134000D02*
X0194729Y0134000D01*
X0235929Y0133500D02*
X0235929Y0128500D01*
X0238429Y0126000D01*
X0235929Y0123500D01*
X0235929Y0118500D01*
X0238429Y0116000D01*
X0235929Y0113500D01*
X0235929Y0108500D01*
X0238429Y0106000D01*
X0235929Y0103500D01*
X0235929Y0098500D01*
X0238429Y0096000D01*
X0235929Y0093500D01*
X0235929Y0088500D01*
X0238429Y0086000D01*
X0235929Y0083500D01*
X0235929Y0078500D01*
X0238429Y0076000D01*
X0243429Y0076000D01*
X0245929Y0078500D01*
X0245929Y0083500D01*
X0243429Y0086000D01*
X0245929Y0088500D01*
X0245929Y0093500D01*
X0243429Y0096000D01*
X0245929Y0098500D01*
X0245929Y0103500D01*
X0243429Y0106000D01*
X0245929Y0108500D01*
X0245929Y0113500D01*
X0243429Y0116000D01*
X0245929Y0118500D01*
X0245929Y0123500D01*
X0243429Y0126000D01*
X0245929Y0128500D01*
X0245929Y0133500D01*
X0243429Y0136000D01*
X0238429Y0136000D01*
X0235929Y0133500D01*
X0088429Y0099500D02*
X0088429Y0092500D01*
X0088427Y0092440D01*
X0088422Y0092379D01*
X0088413Y0092320D01*
X0088400Y0092261D01*
X0088384Y0092202D01*
X0088364Y0092145D01*
X0088341Y0092090D01*
X0088314Y0092035D01*
X0088285Y0091983D01*
X0088252Y0091932D01*
X0088216Y0091883D01*
X0088178Y0091837D01*
X0088136Y0091793D01*
X0088092Y0091751D01*
X0088046Y0091713D01*
X0087997Y0091677D01*
X0087946Y0091644D01*
X0087894Y0091615D01*
X0087839Y0091588D01*
X0087784Y0091565D01*
X0087727Y0091545D01*
X0087668Y0091529D01*
X0087609Y0091516D01*
X0087550Y0091507D01*
X0087489Y0091502D01*
X0087429Y0091500D01*
X0085929Y0091500D01*
X0085429Y0092000D01*
X0066429Y0092000D01*
X0065929Y0091500D01*
X0064429Y0091500D01*
X0064369Y0091502D01*
X0064308Y0091507D01*
X0064249Y0091516D01*
X0064190Y0091529D01*
X0064131Y0091545D01*
X0064074Y0091565D01*
X0064019Y0091588D01*
X0063964Y0091615D01*
X0063912Y0091644D01*
X0063861Y0091677D01*
X0063812Y0091713D01*
X0063766Y0091751D01*
X0063722Y0091793D01*
X0063680Y0091837D01*
X0063642Y0091883D01*
X0063606Y0091932D01*
X0063573Y0091983D01*
X0063544Y0092035D01*
X0063517Y0092090D01*
X0063494Y0092145D01*
X0063474Y0092202D01*
X0063458Y0092261D01*
X0063445Y0092320D01*
X0063436Y0092379D01*
X0063431Y0092440D01*
X0063429Y0092500D01*
X0063429Y0099500D01*
X0063431Y0099560D01*
X0063436Y0099621D01*
X0063445Y0099680D01*
X0063458Y0099739D01*
X0063474Y0099798D01*
X0063494Y0099855D01*
X0063517Y0099910D01*
X0063544Y0099965D01*
X0063573Y0100017D01*
X0063606Y0100068D01*
X0063642Y0100117D01*
X0063680Y0100163D01*
X0063722Y0100207D01*
X0063766Y0100249D01*
X0063812Y0100287D01*
X0063861Y0100323D01*
X0063912Y0100356D01*
X0063964Y0100385D01*
X0064019Y0100412D01*
X0064074Y0100435D01*
X0064131Y0100455D01*
X0064190Y0100471D01*
X0064249Y0100484D01*
X0064308Y0100493D01*
X0064369Y0100498D01*
X0064429Y0100500D01*
X0065929Y0100500D01*
X0066429Y0100000D01*
X0085429Y0100000D01*
X0085929Y0100500D01*
X0087429Y0100500D01*
X0087489Y0100498D01*
X0087550Y0100493D01*
X0087609Y0100484D01*
X0087668Y0100471D01*
X0087727Y0100455D01*
X0087784Y0100435D01*
X0087839Y0100412D01*
X0087894Y0100385D01*
X0087946Y0100356D01*
X0087997Y0100323D01*
X0088046Y0100287D01*
X0088092Y0100249D01*
X0088136Y0100207D01*
X0088178Y0100163D01*
X0088216Y0100117D01*
X0088252Y0100068D01*
X0088285Y0100017D01*
X0088314Y0099965D01*
X0088341Y0099910D01*
X0088364Y0099855D01*
X0088384Y0099798D01*
X0088400Y0099739D01*
X0088413Y0099680D01*
X0088422Y0099621D01*
X0088427Y0099560D01*
X0088429Y0099500D01*
X0087429Y0090500D02*
X0085929Y0090500D01*
X0085429Y0090000D01*
X0066429Y0090000D01*
X0065929Y0090500D01*
X0064429Y0090500D01*
X0064369Y0090498D01*
X0064308Y0090493D01*
X0064249Y0090484D01*
X0064190Y0090471D01*
X0064131Y0090455D01*
X0064074Y0090435D01*
X0064019Y0090412D01*
X0063964Y0090385D01*
X0063912Y0090356D01*
X0063861Y0090323D01*
X0063812Y0090287D01*
X0063766Y0090249D01*
X0063722Y0090207D01*
X0063680Y0090163D01*
X0063642Y0090117D01*
X0063606Y0090068D01*
X0063573Y0090017D01*
X0063544Y0089965D01*
X0063517Y0089910D01*
X0063494Y0089855D01*
X0063474Y0089798D01*
X0063458Y0089739D01*
X0063445Y0089680D01*
X0063436Y0089621D01*
X0063431Y0089560D01*
X0063429Y0089500D01*
X0063429Y0082500D01*
X0063431Y0082440D01*
X0063436Y0082379D01*
X0063445Y0082320D01*
X0063458Y0082261D01*
X0063474Y0082202D01*
X0063494Y0082145D01*
X0063517Y0082090D01*
X0063544Y0082035D01*
X0063573Y0081983D01*
X0063606Y0081932D01*
X0063642Y0081883D01*
X0063680Y0081837D01*
X0063722Y0081793D01*
X0063766Y0081751D01*
X0063812Y0081713D01*
X0063861Y0081677D01*
X0063912Y0081644D01*
X0063964Y0081615D01*
X0064019Y0081588D01*
X0064074Y0081565D01*
X0064131Y0081545D01*
X0064190Y0081529D01*
X0064249Y0081516D01*
X0064308Y0081507D01*
X0064369Y0081502D01*
X0064429Y0081500D01*
X0065929Y0081500D01*
X0066429Y0082000D01*
X0085429Y0082000D01*
X0085929Y0081500D01*
X0087429Y0081500D01*
X0087489Y0081502D01*
X0087550Y0081507D01*
X0087609Y0081516D01*
X0087668Y0081529D01*
X0087727Y0081545D01*
X0087784Y0081565D01*
X0087839Y0081588D01*
X0087894Y0081615D01*
X0087946Y0081644D01*
X0087997Y0081677D01*
X0088046Y0081713D01*
X0088092Y0081751D01*
X0088136Y0081793D01*
X0088178Y0081837D01*
X0088216Y0081883D01*
X0088252Y0081932D01*
X0088285Y0081983D01*
X0088314Y0082035D01*
X0088341Y0082090D01*
X0088364Y0082145D01*
X0088384Y0082202D01*
X0088400Y0082261D01*
X0088413Y0082320D01*
X0088422Y0082379D01*
X0088427Y0082440D01*
X0088429Y0082500D01*
X0088429Y0089500D01*
X0088427Y0089560D01*
X0088422Y0089621D01*
X0088413Y0089680D01*
X0088400Y0089739D01*
X0088384Y0089798D01*
X0088364Y0089855D01*
X0088341Y0089910D01*
X0088314Y0089965D01*
X0088285Y0090017D01*
X0088252Y0090068D01*
X0088216Y0090117D01*
X0088178Y0090163D01*
X0088136Y0090207D01*
X0088092Y0090249D01*
X0088046Y0090287D01*
X0087997Y0090323D01*
X0087946Y0090356D01*
X0087894Y0090385D01*
X0087839Y0090412D01*
X0087784Y0090435D01*
X0087727Y0090455D01*
X0087668Y0090471D01*
X0087609Y0090484D01*
X0087550Y0090493D01*
X0087489Y0090498D01*
X0087429Y0090500D01*
X0087429Y0181500D02*
X0085929Y0181500D01*
X0085429Y0182000D01*
X0066429Y0182000D01*
X0065929Y0181500D01*
X0064429Y0181500D01*
X0064369Y0181502D01*
X0064308Y0181507D01*
X0064249Y0181516D01*
X0064190Y0181529D01*
X0064131Y0181545D01*
X0064074Y0181565D01*
X0064019Y0181588D01*
X0063964Y0181615D01*
X0063912Y0181644D01*
X0063861Y0181677D01*
X0063812Y0181713D01*
X0063766Y0181751D01*
X0063722Y0181793D01*
X0063680Y0181837D01*
X0063642Y0181883D01*
X0063606Y0181932D01*
X0063573Y0181983D01*
X0063544Y0182035D01*
X0063517Y0182090D01*
X0063494Y0182145D01*
X0063474Y0182202D01*
X0063458Y0182261D01*
X0063445Y0182320D01*
X0063436Y0182379D01*
X0063431Y0182440D01*
X0063429Y0182500D01*
X0063429Y0189500D01*
X0063431Y0189560D01*
X0063436Y0189621D01*
X0063445Y0189680D01*
X0063458Y0189739D01*
X0063474Y0189798D01*
X0063494Y0189855D01*
X0063517Y0189910D01*
X0063544Y0189965D01*
X0063573Y0190017D01*
X0063606Y0190068D01*
X0063642Y0190117D01*
X0063680Y0190163D01*
X0063722Y0190207D01*
X0063766Y0190249D01*
X0063812Y0190287D01*
X0063861Y0190323D01*
X0063912Y0190356D01*
X0063964Y0190385D01*
X0064019Y0190412D01*
X0064074Y0190435D01*
X0064131Y0190455D01*
X0064190Y0190471D01*
X0064249Y0190484D01*
X0064308Y0190493D01*
X0064369Y0190498D01*
X0064429Y0190500D01*
X0065929Y0190500D01*
X0066429Y0190000D01*
X0085429Y0190000D01*
X0085929Y0190500D01*
X0087429Y0190500D01*
X0087429Y0191500D02*
X0085929Y0191500D01*
X0085429Y0192000D01*
X0066429Y0192000D01*
X0065929Y0191500D01*
X0064429Y0191500D01*
X0064369Y0191502D01*
X0064308Y0191507D01*
X0064249Y0191516D01*
X0064190Y0191529D01*
X0064131Y0191545D01*
X0064074Y0191565D01*
X0064019Y0191588D01*
X0063964Y0191615D01*
X0063912Y0191644D01*
X0063861Y0191677D01*
X0063812Y0191713D01*
X0063766Y0191751D01*
X0063722Y0191793D01*
X0063680Y0191837D01*
X0063642Y0191883D01*
X0063606Y0191932D01*
X0063573Y0191983D01*
X0063544Y0192035D01*
X0063517Y0192090D01*
X0063494Y0192145D01*
X0063474Y0192202D01*
X0063458Y0192261D01*
X0063445Y0192320D01*
X0063436Y0192379D01*
X0063431Y0192440D01*
X0063429Y0192500D01*
X0063429Y0199500D01*
X0063431Y0199560D01*
X0063436Y0199621D01*
X0063445Y0199680D01*
X0063458Y0199739D01*
X0063474Y0199798D01*
X0063494Y0199855D01*
X0063517Y0199910D01*
X0063544Y0199965D01*
X0063573Y0200017D01*
X0063606Y0200068D01*
X0063642Y0200117D01*
X0063680Y0200163D01*
X0063722Y0200207D01*
X0063766Y0200249D01*
X0063812Y0200287D01*
X0063861Y0200323D01*
X0063912Y0200356D01*
X0063964Y0200385D01*
X0064019Y0200412D01*
X0064074Y0200435D01*
X0064131Y0200455D01*
X0064190Y0200471D01*
X0064249Y0200484D01*
X0064308Y0200493D01*
X0064369Y0200498D01*
X0064429Y0200500D01*
X0065929Y0200500D01*
X0066429Y0200000D01*
X0085429Y0200000D01*
X0085929Y0200500D01*
X0087429Y0200500D01*
X0087489Y0200498D01*
X0087550Y0200493D01*
X0087609Y0200484D01*
X0087668Y0200471D01*
X0087727Y0200455D01*
X0087784Y0200435D01*
X0087839Y0200412D01*
X0087894Y0200385D01*
X0087946Y0200356D01*
X0087997Y0200323D01*
X0088046Y0200287D01*
X0088092Y0200249D01*
X0088136Y0200207D01*
X0088178Y0200163D01*
X0088216Y0200117D01*
X0088252Y0200068D01*
X0088285Y0200017D01*
X0088314Y0199965D01*
X0088341Y0199910D01*
X0088364Y0199855D01*
X0088384Y0199798D01*
X0088400Y0199739D01*
X0088413Y0199680D01*
X0088422Y0199621D01*
X0088427Y0199560D01*
X0088429Y0199500D01*
X0088429Y0192500D01*
X0088427Y0192440D01*
X0088422Y0192379D01*
X0088413Y0192320D01*
X0088400Y0192261D01*
X0088384Y0192202D01*
X0088364Y0192145D01*
X0088341Y0192090D01*
X0088314Y0192035D01*
X0088285Y0191983D01*
X0088252Y0191932D01*
X0088216Y0191883D01*
X0088178Y0191837D01*
X0088136Y0191793D01*
X0088092Y0191751D01*
X0088046Y0191713D01*
X0087997Y0191677D01*
X0087946Y0191644D01*
X0087894Y0191615D01*
X0087839Y0191588D01*
X0087784Y0191565D01*
X0087727Y0191545D01*
X0087668Y0191529D01*
X0087609Y0191516D01*
X0087550Y0191507D01*
X0087489Y0191502D01*
X0087429Y0191500D01*
X0087429Y0190500D02*
X0087489Y0190498D01*
X0087550Y0190493D01*
X0087609Y0190484D01*
X0087668Y0190471D01*
X0087727Y0190455D01*
X0087784Y0190435D01*
X0087839Y0190412D01*
X0087894Y0190385D01*
X0087946Y0190356D01*
X0087997Y0190323D01*
X0088046Y0190287D01*
X0088092Y0190249D01*
X0088136Y0190207D01*
X0088178Y0190163D01*
X0088216Y0190117D01*
X0088252Y0190068D01*
X0088285Y0190017D01*
X0088314Y0189965D01*
X0088341Y0189910D01*
X0088364Y0189855D01*
X0088384Y0189798D01*
X0088400Y0189739D01*
X0088413Y0189680D01*
X0088422Y0189621D01*
X0088427Y0189560D01*
X0088429Y0189500D01*
X0088429Y0182500D01*
X0088427Y0182440D01*
X0088422Y0182379D01*
X0088413Y0182320D01*
X0088400Y0182261D01*
X0088384Y0182202D01*
X0088364Y0182145D01*
X0088341Y0182090D01*
X0088314Y0182035D01*
X0088285Y0181983D01*
X0088252Y0181932D01*
X0088216Y0181883D01*
X0088178Y0181837D01*
X0088136Y0181793D01*
X0088092Y0181751D01*
X0088046Y0181713D01*
X0087997Y0181677D01*
X0087946Y0181644D01*
X0087894Y0181615D01*
X0087839Y0181588D01*
X0087784Y0181565D01*
X0087727Y0181545D01*
X0087668Y0181529D01*
X0087609Y0181516D01*
X0087550Y0181507D01*
X0087489Y0181502D01*
X0087429Y0181500D01*
D12*
X0086786Y0181003D02*
X0086035Y0181754D01*
X0084534Y0181754D01*
X0083783Y0181003D01*
X0082182Y0181003D02*
X0082182Y0179502D01*
X0081431Y0178751D01*
X0079179Y0178751D01*
X0079179Y0177250D02*
X0079179Y0181754D01*
X0081431Y0181754D01*
X0082182Y0181003D01*
X0080680Y0178751D02*
X0082182Y0177250D01*
X0083783Y0177250D02*
X0086786Y0180253D01*
X0086786Y0181003D01*
X0086786Y0177250D02*
X0083783Y0177250D01*
X0083575Y0185250D02*
X0086578Y0188253D01*
X0086578Y0189003D01*
X0085827Y0189754D01*
X0084326Y0189754D01*
X0083575Y0189003D01*
X0080472Y0189754D02*
X0080472Y0185250D01*
X0078971Y0185250D02*
X0081974Y0185250D01*
X0083575Y0185250D02*
X0086578Y0185250D01*
X0080472Y0189754D02*
X0078971Y0188253D01*
X0077370Y0189003D02*
X0077370Y0187502D01*
X0076619Y0186751D01*
X0074367Y0186751D01*
X0074367Y0185250D02*
X0074367Y0189754D01*
X0076619Y0189754D01*
X0077370Y0189003D01*
X0075869Y0186751D02*
X0077370Y0185250D01*
X0071035Y0192250D02*
X0069534Y0192250D01*
X0068783Y0193001D01*
X0067182Y0192250D02*
X0065680Y0193751D01*
X0066431Y0193751D02*
X0064179Y0193751D01*
X0064179Y0192250D02*
X0064179Y0196754D01*
X0066431Y0196754D01*
X0067182Y0196003D01*
X0067182Y0194502D01*
X0066431Y0193751D01*
X0068783Y0196003D02*
X0069534Y0196754D01*
X0071035Y0196754D01*
X0071786Y0196003D01*
X0071786Y0195253D01*
X0071035Y0194502D01*
X0071786Y0193751D01*
X0071786Y0193001D01*
X0071035Y0192250D01*
X0071035Y0194502D02*
X0070284Y0194502D01*
X0120176Y0192793D02*
X0121310Y0191659D01*
X0120176Y0192793D02*
X0123579Y0192793D01*
X0123579Y0191659D02*
X0123579Y0193928D01*
X0146175Y0194649D02*
X0146175Y0191646D01*
X0146175Y0193147D02*
X0150679Y0193147D01*
X0150679Y0190045D02*
X0150679Y0187042D01*
X0146175Y0187042D01*
X0146175Y0190045D01*
X0148427Y0188543D02*
X0148427Y0187042D01*
X0149178Y0185441D02*
X0149928Y0185441D01*
X0150679Y0184690D01*
X0150679Y0183189D01*
X0149928Y0182438D01*
X0148427Y0183189D02*
X0148427Y0184690D01*
X0149178Y0185441D01*
X0146926Y0185441D02*
X0146175Y0184690D01*
X0146175Y0183189D01*
X0146926Y0182438D01*
X0147676Y0182438D01*
X0148427Y0183189D01*
X0146175Y0180837D02*
X0146175Y0177834D01*
X0150679Y0177834D01*
X0148427Y0177834D02*
X0148427Y0179336D01*
X0146175Y0176233D02*
X0146175Y0173230D01*
X0150679Y0173230D01*
X0149928Y0171629D02*
X0146926Y0171629D01*
X0146175Y0170878D01*
X0146175Y0169377D01*
X0146926Y0168626D01*
X0149928Y0168626D01*
X0150679Y0169377D01*
X0150679Y0170878D01*
X0149928Y0171629D01*
X0148427Y0173230D02*
X0148427Y0174732D01*
X0148427Y0167025D02*
X0148427Y0164022D01*
X0146926Y0162421D02*
X0146175Y0162421D01*
X0146926Y0162421D02*
X0148427Y0160920D01*
X0150679Y0160920D01*
X0148427Y0160920D02*
X0146926Y0159419D01*
X0146175Y0159419D01*
X0146175Y0142149D02*
X0150679Y0142149D01*
X0146175Y0139146D01*
X0150679Y0139146D01*
X0150679Y0137578D02*
X0150679Y0136077D01*
X0150679Y0136827D02*
X0146175Y0136827D01*
X0146175Y0136077D02*
X0146175Y0137578D01*
X0147676Y0134475D02*
X0150679Y0134475D01*
X0148427Y0134475D02*
X0148427Y0131473D01*
X0147676Y0131473D02*
X0150679Y0131473D01*
X0149928Y0129871D02*
X0148427Y0129871D01*
X0148427Y0128370D01*
X0146926Y0126869D02*
X0149928Y0126869D01*
X0150679Y0127620D01*
X0150679Y0129121D01*
X0149928Y0129871D01*
X0147676Y0131473D02*
X0146175Y0132974D01*
X0147676Y0134475D01*
X0146926Y0129871D02*
X0146175Y0129121D01*
X0146175Y0127620D01*
X0146926Y0126869D01*
X0148427Y0125268D02*
X0148427Y0122265D01*
X0146926Y0120664D02*
X0146175Y0120664D01*
X0146926Y0120664D02*
X0148427Y0119162D01*
X0150679Y0119162D01*
X0148427Y0119162D02*
X0146926Y0117661D01*
X0146175Y0117661D01*
X0123579Y0118726D02*
X0123012Y0118159D01*
X0123579Y0118726D02*
X0123579Y0119860D01*
X0123012Y0120428D01*
X0122445Y0120428D01*
X0121878Y0119860D01*
X0121878Y0119293D01*
X0121878Y0119860D02*
X0121310Y0120428D01*
X0120743Y0120428D01*
X0120176Y0119860D01*
X0120176Y0118726D01*
X0120743Y0118159D01*
X0121310Y0139159D02*
X0120176Y0140293D01*
X0123579Y0140293D01*
X0123579Y0139159D02*
X0123579Y0141428D01*
X0123012Y0170659D02*
X0123579Y0171226D01*
X0123579Y0172360D01*
X0123012Y0172928D01*
X0122445Y0172928D01*
X0121878Y0172360D01*
X0121878Y0171793D01*
X0121878Y0172360D02*
X0121310Y0172928D01*
X0120743Y0172928D01*
X0120176Y0172360D01*
X0120176Y0171226D01*
X0120743Y0170659D01*
X0168971Y0159754D02*
X0168971Y0155250D01*
X0168971Y0156751D02*
X0171223Y0156751D01*
X0171974Y0157502D01*
X0171974Y0159003D01*
X0171223Y0159754D01*
X0168971Y0159754D01*
X0173575Y0158253D02*
X0175076Y0159754D01*
X0175076Y0155250D01*
X0173575Y0155250D02*
X0176578Y0155250D01*
X0171974Y0155250D02*
X0170472Y0156751D01*
X0229675Y0130647D02*
X0234179Y0130647D01*
X0234179Y0129146D02*
X0234179Y0132149D01*
X0231176Y0129146D02*
X0229675Y0130647D01*
X0247675Y0130045D02*
X0250678Y0130045D01*
X0252179Y0128543D01*
X0250678Y0127042D01*
X0247675Y0127042D01*
X0248426Y0125441D02*
X0247675Y0124690D01*
X0247675Y0123189D01*
X0248426Y0122438D01*
X0249176Y0122438D01*
X0249927Y0123189D01*
X0249927Y0124690D01*
X0250678Y0125441D01*
X0251428Y0125441D01*
X0252179Y0124690D01*
X0252179Y0123189D01*
X0251428Y0122438D01*
X0249927Y0131646D02*
X0249927Y0134649D01*
X0247675Y0133898D02*
X0249927Y0131646D01*
X0252179Y0133898D02*
X0247675Y0133898D01*
X0247675Y0082149D02*
X0248426Y0080647D01*
X0249927Y0079146D01*
X0249927Y0081398D01*
X0250678Y0082149D01*
X0251428Y0082149D01*
X0252179Y0081398D01*
X0252179Y0079897D01*
X0251428Y0079146D01*
X0249927Y0079146D01*
X0171578Y0044754D02*
X0168575Y0044754D01*
X0168575Y0042502D01*
X0170076Y0043253D01*
X0170827Y0043253D01*
X0171578Y0042502D01*
X0171578Y0041001D01*
X0170827Y0040250D01*
X0169326Y0040250D01*
X0168575Y0041001D01*
X0166974Y0040250D02*
X0165472Y0041751D01*
X0166223Y0041751D02*
X0163971Y0041751D01*
X0163971Y0040250D02*
X0163971Y0044754D01*
X0166223Y0044754D01*
X0166974Y0044003D01*
X0166974Y0042502D01*
X0166223Y0041751D01*
X0150679Y0042149D02*
X0146175Y0042149D01*
X0146175Y0039146D02*
X0150679Y0042149D01*
X0150679Y0039146D02*
X0146175Y0039146D01*
X0146175Y0037578D02*
X0146175Y0036077D01*
X0146175Y0036827D02*
X0150679Y0036827D01*
X0150679Y0036077D02*
X0150679Y0037578D01*
X0150679Y0034475D02*
X0147676Y0034475D01*
X0146175Y0032974D01*
X0147676Y0031473D01*
X0150679Y0031473D01*
X0149928Y0029871D02*
X0148427Y0029871D01*
X0148427Y0028370D01*
X0146926Y0026869D02*
X0149928Y0026869D01*
X0150679Y0027620D01*
X0150679Y0029121D01*
X0149928Y0029871D01*
X0148427Y0031473D02*
X0148427Y0034475D01*
X0146926Y0029871D02*
X0146175Y0029121D01*
X0146175Y0027620D01*
X0146926Y0026869D01*
X0148427Y0025268D02*
X0148427Y0022265D01*
X0146175Y0020664D02*
X0150679Y0017661D01*
X0150679Y0020664D02*
X0146175Y0017661D01*
X0123579Y0018726D02*
X0123012Y0018159D01*
X0123579Y0018726D02*
X0123579Y0019860D01*
X0123012Y0020428D01*
X0122445Y0020428D01*
X0121878Y0019860D01*
X0121878Y0019293D01*
X0121878Y0019860D02*
X0121310Y0020428D01*
X0120743Y0020428D01*
X0120176Y0019860D01*
X0120176Y0018726D01*
X0120743Y0018159D01*
X0121310Y0039159D02*
X0120176Y0040293D01*
X0123579Y0040293D01*
X0123579Y0039159D02*
X0123579Y0041428D01*
X0146175Y0056919D02*
X0150679Y0059921D01*
X0148427Y0061522D02*
X0148427Y0064525D01*
X0146926Y0066126D02*
X0149928Y0066126D01*
X0150679Y0066877D01*
X0150679Y0068378D01*
X0149928Y0069129D01*
X0146926Y0069129D01*
X0146175Y0068378D01*
X0146175Y0066877D01*
X0146926Y0066126D01*
X0146175Y0070730D02*
X0146175Y0073733D01*
X0146175Y0075334D02*
X0146175Y0078337D01*
X0146926Y0079938D02*
X0147676Y0079938D01*
X0148427Y0080689D01*
X0148427Y0082190D01*
X0149178Y0082941D01*
X0149928Y0082941D01*
X0150679Y0082190D01*
X0150679Y0080689D01*
X0149928Y0079938D01*
X0146926Y0079938D02*
X0146175Y0080689D01*
X0146175Y0082190D01*
X0146926Y0082941D01*
X0146175Y0084542D02*
X0150679Y0084542D01*
X0150679Y0087545D01*
X0148427Y0086043D02*
X0148427Y0084542D01*
X0146175Y0084542D02*
X0146175Y0087545D01*
X0146175Y0089146D02*
X0146175Y0092149D01*
X0146175Y0090647D02*
X0150679Y0090647D01*
X0148427Y0076836D02*
X0148427Y0075334D01*
X0150679Y0075334D02*
X0146175Y0075334D01*
X0148427Y0072232D02*
X0148427Y0070730D01*
X0150679Y0070730D02*
X0146175Y0070730D01*
X0146175Y0059921D02*
X0150679Y0056919D01*
X0123579Y0068726D02*
X0123012Y0068159D01*
X0123579Y0068726D02*
X0123579Y0069860D01*
X0123012Y0070428D01*
X0122445Y0070428D01*
X0121878Y0069860D01*
X0121878Y0069293D01*
X0121878Y0069860D02*
X0121310Y0070428D01*
X0120743Y0070428D01*
X0120176Y0069860D01*
X0120176Y0068726D01*
X0120743Y0068159D01*
X0121310Y0089159D02*
X0120176Y0090293D01*
X0123579Y0090293D01*
X0123579Y0089159D02*
X0123579Y0091428D01*
X0086578Y0085250D02*
X0083575Y0085250D01*
X0085076Y0085250D02*
X0085076Y0089754D01*
X0083575Y0088253D01*
X0081974Y0085250D02*
X0078971Y0085250D01*
X0080472Y0085250D02*
X0080472Y0089754D01*
X0078971Y0088253D01*
X0077370Y0089003D02*
X0077370Y0087502D01*
X0076619Y0086751D01*
X0074367Y0086751D01*
X0074367Y0085250D02*
X0074367Y0089754D01*
X0076619Y0089754D01*
X0077370Y0089003D01*
X0075869Y0086751D02*
X0077370Y0085250D01*
X0079179Y0081754D02*
X0081431Y0081754D01*
X0082182Y0081003D01*
X0082182Y0079502D01*
X0081431Y0078751D01*
X0079179Y0078751D01*
X0079179Y0077250D02*
X0079179Y0081754D01*
X0080680Y0078751D02*
X0082182Y0077250D01*
X0083783Y0078001D02*
X0084534Y0077250D01*
X0086035Y0077250D01*
X0086786Y0078001D01*
X0086786Y0078751D01*
X0086035Y0079502D01*
X0083783Y0079502D01*
X0083783Y0078001D01*
X0083783Y0079502D02*
X0085284Y0081003D01*
X0086786Y0081754D01*
X0071786Y0096003D02*
X0068783Y0093001D01*
X0068783Y0092250D01*
X0067182Y0092250D02*
X0065680Y0093751D01*
X0066431Y0093751D02*
X0064179Y0093751D01*
X0064179Y0092250D02*
X0064179Y0096754D01*
X0066431Y0096754D01*
X0067182Y0096003D01*
X0067182Y0094502D01*
X0066431Y0093751D01*
X0068783Y0096754D02*
X0071786Y0096754D01*
X0071786Y0096003D01*
X0034167Y0074744D02*
X0034167Y0044744D01*
X0011167Y0044744D01*
X0011167Y0049744D01*
X0015067Y0049744D01*
X0015067Y0069744D01*
X0011167Y0069744D01*
X0011167Y0074744D01*
X0034167Y0074744D01*
X0011167Y0069744D02*
X0011167Y0049744D01*
X0060175Y0044675D02*
X0060175Y0043174D01*
X0060926Y0042423D01*
X0060926Y0040822D02*
X0060175Y0040071D01*
X0060175Y0038570D01*
X0060926Y0037819D01*
X0063928Y0037819D01*
X0064679Y0038570D01*
X0064679Y0040071D01*
X0063928Y0040822D01*
X0064679Y0042423D02*
X0061676Y0045426D01*
X0060926Y0045426D01*
X0060175Y0044675D01*
X0064679Y0045426D02*
X0064679Y0042423D01*
X0064679Y0036251D02*
X0064679Y0034750D01*
X0064679Y0035501D02*
X0060175Y0035501D01*
X0060175Y0036251D02*
X0060175Y0034750D01*
X0060175Y0129750D02*
X0060175Y0131251D01*
X0060175Y0130501D02*
X0064679Y0130501D01*
X0064679Y0131251D02*
X0064679Y0129750D01*
X0063928Y0132819D02*
X0060926Y0132819D01*
X0060175Y0133570D01*
X0060175Y0135071D01*
X0060926Y0135822D01*
X0061676Y0137423D02*
X0060175Y0138924D01*
X0064679Y0138924D01*
X0064679Y0137423D02*
X0064679Y0140426D01*
X0063928Y0135822D02*
X0064679Y0135071D01*
X0064679Y0133570D01*
X0063928Y0132819D01*
D13*
X0061729Y0096000D03*
X0061729Y0086000D03*
X0076729Y0071000D03*
X0090129Y0086000D03*
X0090129Y0096000D03*
X0105129Y0071000D03*
X0146729Y0051000D03*
X0175129Y0051000D03*
X0180129Y0166000D03*
X0151729Y0166000D03*
X0105129Y0171000D03*
X0090129Y0186000D03*
X0090129Y0196000D03*
X0061729Y0196000D03*
X0061729Y0186000D03*
X0076729Y0171000D03*
D14*
X0132429Y0172600D02*
X0132429Y0174100D01*
X0138929Y0176500D02*
X0139929Y0175500D01*
X0141629Y0183500D02*
X0143129Y0183500D01*
X0138929Y0191000D02*
X0139929Y0192000D01*
X0132429Y0192900D02*
X0132429Y0194400D01*
X0132429Y0141900D02*
X0132429Y0140400D01*
X0138929Y0138500D02*
X0139929Y0139500D01*
X0141629Y0131000D02*
X0143129Y0131000D01*
X0138929Y0124000D02*
X0139929Y0123000D01*
X0132429Y0121600D02*
X0132429Y0120100D01*
X0132429Y0091900D02*
X0132429Y0090400D01*
X0138929Y0088500D02*
X0139929Y0089500D01*
X0141629Y0081000D02*
X0143129Y0081000D01*
X0138929Y0074000D02*
X0139929Y0073000D01*
X0132429Y0071600D02*
X0132429Y0070100D01*
X0132429Y0041900D02*
X0132429Y0040400D01*
X0138929Y0038500D02*
X0139929Y0039500D01*
X0141629Y0031000D02*
X0143129Y0031000D01*
X0138929Y0024000D02*
X0139929Y0023000D01*
X0132429Y0021600D02*
X0132429Y0020100D01*
D15*
X0183459Y0103850D02*
X0186595Y0106986D01*
X0185027Y0106986D02*
X0185027Y0103850D01*
X0186595Y0103850D02*
X0183459Y0106986D01*
X0183459Y0105418D02*
X0186595Y0105418D01*
D16*
X0183329Y0104700D02*
X0175923Y0104700D01*
X0178391Y0107169D01*
X0175923Y0109638D01*
X0183329Y0109638D01*
X0182095Y0112250D02*
X0177157Y0112250D01*
X0175923Y0113485D01*
X0175923Y0115954D01*
X0177157Y0117188D01*
X0175923Y0119801D02*
X0175923Y0123504D01*
X0177157Y0124738D01*
X0179626Y0124738D01*
X0180860Y0123504D01*
X0180860Y0119801D01*
X0183329Y0119801D02*
X0175923Y0119801D01*
X0182095Y0117188D02*
X0183329Y0115954D01*
X0183329Y0113485D01*
X0182095Y0112250D01*
X0179626Y0127351D02*
X0179626Y0132289D01*
X0183329Y0131054D02*
X0175923Y0131054D01*
X0179626Y0127351D01*
X0180860Y0134902D02*
X0179626Y0136136D01*
X0179626Y0138605D01*
X0180860Y0139839D01*
X0182095Y0139839D01*
X0183329Y0138605D01*
X0183329Y0136136D01*
X0182095Y0134902D01*
X0180860Y0134902D01*
X0179626Y0136136D02*
X0178391Y0134902D01*
X0177157Y0134902D01*
X0175923Y0136136D01*
X0175923Y0138605D01*
X0177157Y0139839D01*
X0178391Y0139839D01*
X0179626Y0138605D01*
X0177157Y0142452D02*
X0175923Y0143687D01*
X0175923Y0146155D01*
X0177157Y0147390D01*
X0178391Y0147390D01*
X0183329Y0142452D01*
X0183329Y0147390D01*
X0183329Y0150003D02*
X0178391Y0154940D01*
X0177157Y0154940D01*
X0175923Y0153706D01*
X0175923Y0151237D01*
X0177157Y0150003D01*
X0183329Y0150003D02*
X0183329Y0154940D01*
D17*
X0034285Y0146512D02*
X0034285Y0185488D01*
X0011648Y0185488D01*
X0011648Y0146512D01*
X0034285Y0146512D01*
X0034285Y0145488D02*
X0011648Y0145488D01*
X0011648Y0106512D01*
X0034285Y0106512D01*
X0034285Y0145488D01*
X0013842Y0136236D02*
X0011874Y0136236D01*
X0011874Y0116157D02*
X0013842Y0116157D01*
X0013842Y0156157D02*
X0011874Y0156157D01*
X0011874Y0176236D02*
X0013842Y0176236D01*
D18*
X0013098Y0188070D02*
X0015500Y0191673D01*
X0016781Y0191073D02*
X0017381Y0191673D01*
X0018582Y0191673D01*
X0019183Y0191073D01*
X0019183Y0190472D01*
X0018582Y0189872D01*
X0019183Y0189271D01*
X0019183Y0188671D01*
X0018582Y0188070D01*
X0017381Y0188070D01*
X0016781Y0188671D01*
X0015500Y0188070D02*
X0013098Y0191673D01*
X0017982Y0189872D02*
X0018582Y0189872D01*
X0018582Y0151673D02*
X0017381Y0151673D01*
X0016781Y0151073D01*
X0015500Y0151673D02*
X0013098Y0148070D01*
X0015500Y0148070D02*
X0013098Y0151673D01*
X0016781Y0148070D02*
X0019183Y0150472D01*
X0019183Y0151073D01*
X0018582Y0151673D01*
X0019183Y0148070D02*
X0016781Y0148070D01*
X0007467Y0052617D02*
X0007467Y0049548D01*
X0007467Y0051082D02*
X0002863Y0051082D01*
X0004397Y0049548D01*
X0002863Y0048013D02*
X0002863Y0046478D01*
X0002863Y0047246D02*
X0006699Y0047246D01*
X0007467Y0046478D01*
X0007467Y0045711D01*
X0006699Y0044944D01*
M02*
