%
M48
M72
T01C0.01378
T02C0.03200
T03C0.03900
T04C0.03937
T05C0.04000
T06C0.04724
%
T01
X160929Y86000
X160929Y96000
X110929Y186000
T02
X95929Y186000
X95929Y196000
X110929Y171000
X100929Y156000
X90929Y156000
X80929Y156000
X70929Y156000
X70929Y171000
X55929Y186000
X55929Y196000
X130929Y193500
X140929Y183500
X130929Y173500
X145929Y166000
X130929Y141000
X140929Y131000
X130929Y121000
X100929Y126000
X90929Y126000
X80929Y126000
X70929Y126000
X55929Y96000
X55929Y86000
X70929Y71000
X70929Y61000
X80929Y61000
X90929Y61000
X100929Y61000
X110929Y71000
X95929Y86000
X95929Y96000
X130929Y91000
X140929Y81000
X130929Y71000
X140929Y51000
X130929Y41000
X140929Y31000
X130929Y21000
X100929Y31000
X90929Y31000
X80929Y31000
X70929Y31000
X180929Y51000
X185929Y166000
T03
X190929Y136000
X200929Y136000
X210929Y136000
X220929Y136000
X220929Y106000
X210929Y106000
X200929Y106000
X190929Y106000
T04
X13429Y8500
X238429Y193500
X245929Y11000
T05
X240929Y81000
X240929Y91000
X240929Y101000
X240929Y111000
X240929Y121000
X240929Y131000
X20929Y126000
X20929Y116000
X20929Y136000
X20929Y156000
X20929Y166000
X20929Y176000
T06
X22667Y69744
X22667Y59744
X22667Y49744
M30
