G75*
%MOIN*%
%OFA0B0*%
%FSLAX25Y25*%
%IPPOS*%
%LPD*%
%AMOC8*
5,1,8,0,0,1.08239X$1,22.5*
%
%ADD10C,0.04737*%
%ADD11C,0.06000*%
%ADD12OC8,0.06000*%
%ADD13R,0.06700X0.06700*%
%ADD14C,0.06700*%
%ADD15C,0.06800*%
%ADD16C,0.06800*%
%ADD17R,0.07887X0.07887*%
%ADD18C,0.07887*%
%ADD19C,0.03778*%
D10*
X0013429Y0008500D03*
X0238429Y0193500D03*
X0245929Y0011000D03*
D11*
X0100929Y0031000D03*
X0090929Y0031000D03*
X0080929Y0031000D03*
X0070929Y0031000D03*
X0070929Y0061000D03*
X0080929Y0061000D03*
X0090929Y0061000D03*
X0100929Y0061000D03*
X0100929Y0126000D03*
X0090929Y0126000D03*
X0080929Y0126000D03*
X0070929Y0126000D03*
X0070929Y0156000D03*
X0080929Y0156000D03*
X0090929Y0156000D03*
X0100929Y0156000D03*
D12*
X0110929Y0171000D03*
X0095929Y0186000D03*
X0095929Y0196000D03*
X0070929Y0171000D03*
X0055929Y0186000D03*
X0055929Y0196000D03*
X0130929Y0193500D03*
X0140929Y0183500D03*
X0130929Y0173500D03*
X0145929Y0166000D03*
X0130929Y0141000D03*
X0140929Y0131000D03*
X0130929Y0121000D03*
X0095929Y0096000D03*
X0095929Y0086000D03*
X0110929Y0071000D03*
X0130929Y0071000D03*
X0140929Y0081000D03*
X0130929Y0091000D03*
X0140929Y0051000D03*
X0130929Y0041000D03*
X0140929Y0031000D03*
X0130929Y0021000D03*
X0180929Y0051000D03*
X0070929Y0071000D03*
X0055929Y0086000D03*
X0055929Y0096000D03*
X0185929Y0166000D03*
D13*
X0190929Y0106000D03*
D14*
X0200929Y0106000D03*
X0210929Y0106000D03*
X0220929Y0106000D03*
X0220929Y0136000D03*
X0210929Y0136000D03*
X0200929Y0136000D03*
X0190929Y0136000D03*
D15*
X0237929Y0131000D02*
X0243929Y0131000D01*
X0243929Y0121000D02*
X0237929Y0121000D01*
X0237929Y0111000D02*
X0243929Y0111000D01*
X0243929Y0101000D02*
X0237929Y0101000D01*
X0237929Y0091000D02*
X0243929Y0091000D01*
X0243929Y0081000D02*
X0237929Y0081000D01*
D16*
X0020929Y0116000D03*
X0020929Y0126000D03*
X0020929Y0136000D03*
X0020929Y0156000D03*
X0020929Y0166000D03*
X0020929Y0176000D03*
D17*
X0022667Y0049744D03*
D18*
X0022667Y0059744D03*
X0022667Y0069744D03*
D19*
X0160929Y0086000D03*
X0160929Y0096000D03*
X0110929Y0186000D03*
M02*
