G75*
%MOIN*%
%OFA0B0*%
%FSLAX25Y25*%
%IPPOS*%
%LPD*%
%AMOC8*
5,1,8,0,0,1.08239X$1,22.5*
%
%ADD10C,0.05200*%
%ADD11OC8,0.05200*%
%ADD12R,0.05900X0.05900*%
%ADD13C,0.05900*%
%ADD14C,0.06000*%
%ADD15C,0.06000*%
%ADD16R,0.07087X0.07087*%
%ADD17C,0.07087*%
%ADD18C,0.00600*%
%ADD19C,0.02978*%
D10*
X0070929Y0031000D03*
X0080929Y0031000D03*
X0090929Y0031000D03*
X0100929Y0031000D03*
X0100929Y0061000D03*
X0090929Y0061000D03*
X0080929Y0061000D03*
X0070929Y0061000D03*
X0070929Y0126000D03*
X0080929Y0126000D03*
X0090929Y0126000D03*
X0100929Y0126000D03*
X0100929Y0156000D03*
X0090929Y0156000D03*
X0080929Y0156000D03*
X0070929Y0156000D03*
D11*
X0070929Y0171000D03*
X0055929Y0186000D03*
X0055929Y0196000D03*
X0095929Y0196000D03*
X0095929Y0186000D03*
X0110929Y0171000D03*
X0130929Y0173500D03*
X0140929Y0183500D03*
X0130929Y0193500D03*
X0145929Y0166000D03*
X0130929Y0141000D03*
X0140929Y0131000D03*
X0130929Y0121000D03*
X0095929Y0096000D03*
X0095929Y0086000D03*
X0110929Y0071000D03*
X0130929Y0071000D03*
X0140929Y0081000D03*
X0130929Y0091000D03*
X0140929Y0051000D03*
X0130929Y0041000D03*
X0140929Y0031000D03*
X0130929Y0021000D03*
X0180929Y0051000D03*
X0070929Y0071000D03*
X0055929Y0086000D03*
X0055929Y0096000D03*
X0185929Y0166000D03*
D12*
X0190929Y0106000D03*
D13*
X0200929Y0106000D03*
X0210929Y0106000D03*
X0220929Y0106000D03*
X0220929Y0136000D03*
X0210929Y0136000D03*
X0200929Y0136000D03*
X0190929Y0136000D03*
D14*
X0237929Y0131000D02*
X0243929Y0131000D01*
X0243929Y0121000D02*
X0237929Y0121000D01*
X0237929Y0111000D02*
X0243929Y0111000D01*
X0243929Y0101000D02*
X0237929Y0101000D01*
X0237929Y0091000D02*
X0243929Y0091000D01*
X0243929Y0081000D02*
X0237929Y0081000D01*
D15*
X0020929Y0116000D03*
X0020929Y0126000D03*
X0020929Y0136000D03*
X0020929Y0156000D03*
X0020929Y0166000D03*
X0020929Y0176000D03*
D16*
X0022667Y0049744D03*
D17*
X0022667Y0059744D03*
X0022667Y0069744D03*
D18*
X0050929Y0016000D02*
X0060929Y0006000D01*
X0160929Y0006000D01*
X0165929Y0011000D01*
X0165929Y0091000D01*
X0165929Y0191000D01*
X0160929Y0196000D01*
X0140929Y0196000D01*
X0135929Y0191000D01*
X0135929Y0158500D01*
X0133429Y0156000D01*
X0115929Y0156000D01*
X0108429Y0148500D01*
X0073429Y0148500D01*
X0070929Y0151000D01*
X0070929Y0156000D01*
X0070929Y0171000D01*
X0080929Y0156000D02*
X0080929Y0191000D01*
X0075929Y0196000D01*
X0055929Y0196000D01*
X0045929Y0196000D01*
X0035929Y0176000D01*
X0020929Y0176000D01*
X0020929Y0166000D02*
X0035929Y0166000D01*
X0045929Y0186000D01*
X0055929Y0186000D01*
X0055929Y0131000D01*
X0060929Y0126000D01*
X0070929Y0126000D01*
X0070929Y0121000D01*
X0080929Y0111000D01*
X0135929Y0111000D01*
X0140929Y0116000D01*
X0140929Y0131000D01*
X0136076Y0126588D02*
X0136076Y0136147D01*
X0145929Y0146000D01*
X0145929Y0166000D01*
X0140929Y0173500D02*
X0145929Y0178500D01*
X0155929Y0178500D01*
X0160929Y0173500D01*
X0160929Y0096000D01*
X0165929Y0091000D02*
X0140929Y0091000D01*
X0134429Y0084500D01*
X0134429Y0064550D01*
X0115929Y0051050D01*
X0115929Y0051000D01*
X0070929Y0051000D01*
X0070929Y0061000D01*
X0070929Y0071000D01*
X0080929Y0076000D02*
X0080929Y0061000D01*
X0090929Y0061000D02*
X0095929Y0066000D01*
X0095929Y0086000D01*
X0095929Y0096000D01*
X0100929Y0101000D02*
X0095929Y0106000D01*
X0070929Y0106000D01*
X0050929Y0126000D01*
X0050929Y0151000D01*
X0045929Y0156000D01*
X0020929Y0156000D01*
X0015929Y0161000D01*
X0015929Y0196000D01*
X0020929Y0201000D01*
X0100929Y0201000D01*
X0100929Y0156000D01*
X0105929Y0156000D01*
X0110929Y0161000D01*
X0128429Y0161000D01*
X0130929Y0166000D01*
X0130929Y0173500D01*
X0138429Y0178500D02*
X0140929Y0181000D01*
X0140929Y0183500D01*
X0138429Y0178500D02*
X0138429Y0153500D01*
X0135929Y0151000D01*
X0120929Y0151000D01*
X0115929Y0146000D01*
X0115929Y0141000D01*
X0110929Y0136000D01*
X0095929Y0136000D01*
X0090929Y0131000D01*
X0090929Y0126000D01*
X0080929Y0126000D02*
X0080929Y0121000D01*
X0085929Y0116000D01*
X0125929Y0116000D01*
X0130929Y0121000D01*
X0136076Y0126588D01*
X0123429Y0131000D02*
X0123429Y0143450D01*
X0127279Y0147300D01*
X0136426Y0147300D01*
X0140929Y0151803D01*
X0140929Y0173500D01*
X0130929Y0193500D02*
X0115929Y0193500D01*
X0110929Y0186000D01*
X0110929Y0171000D01*
X0095929Y0161000D02*
X0095929Y0186000D01*
X0095929Y0196000D01*
X0100929Y0201000D02*
X0245330Y0201000D01*
X0250330Y0196000D01*
X0250330Y0127901D01*
X0240929Y0121000D01*
X0220929Y0121000D01*
X0200929Y0136000D01*
X0190929Y0136000D02*
X0185929Y0136000D01*
X0180929Y0131000D01*
X0180929Y0051000D01*
X0160929Y0066000D02*
X0160929Y0016000D01*
X0155929Y0011000D01*
X0065929Y0011000D01*
X0055929Y0021000D01*
X0055929Y0061000D01*
X0045929Y0071000D01*
X0023923Y0071000D01*
X0022667Y0069744D01*
X0015929Y0066000D02*
X0015929Y0111000D01*
X0020929Y0116000D01*
X0015929Y0121000D01*
X0015929Y0151000D01*
X0020929Y0156000D01*
X0020929Y0136000D02*
X0040929Y0136000D01*
X0045929Y0131000D01*
X0045929Y0121000D01*
X0055929Y0111000D01*
X0055929Y0096000D01*
X0080929Y0076000D01*
X0060929Y0081000D02*
X0060929Y0036000D01*
X0065929Y0031000D01*
X0070929Y0031000D01*
X0070929Y0021000D01*
X0075929Y0016000D01*
X0135929Y0016000D01*
X0140929Y0021000D01*
X0140929Y0031000D01*
X0135929Y0026000D02*
X0135929Y0046000D01*
X0140929Y0051000D01*
X0140929Y0063500D02*
X0110929Y0041000D01*
X0090929Y0041000D01*
X0090929Y0031000D01*
X0080929Y0031000D02*
X0080929Y0026000D01*
X0085929Y0021000D01*
X0130929Y0021000D01*
X0135929Y0026000D01*
X0117129Y0032250D02*
X0115879Y0031000D01*
X0100929Y0031000D01*
X0117129Y0032250D02*
X0117129Y0039700D01*
X0150929Y0066000D01*
X0160929Y0066000D01*
X0160929Y0086000D01*
X0140929Y0081000D02*
X0140929Y0063500D01*
X0130929Y0071000D02*
X0120929Y0071000D01*
X0110929Y0061000D01*
X0100929Y0061000D01*
X0100929Y0101000D01*
X0115929Y0086000D02*
X0110929Y0081000D01*
X0110929Y0071000D01*
X0115929Y0086000D02*
X0130929Y0086000D01*
X0130929Y0091000D01*
X0118429Y0126000D02*
X0100929Y0126000D01*
X0118429Y0126000D02*
X0123429Y0131000D01*
X0095929Y0161000D02*
X0090929Y0156000D01*
X0050929Y0111000D02*
X0035929Y0126000D01*
X0020929Y0126000D01*
X0020929Y0116000D02*
X0020929Y0115485D01*
X0050929Y0111000D02*
X0050929Y0091000D01*
X0055929Y0086000D01*
X0060929Y0081000D01*
X0045929Y0051000D02*
X0025929Y0051000D01*
X0024673Y0049744D01*
X0022667Y0049744D01*
X0022667Y0059744D02*
X0022185Y0059744D01*
X0015929Y0066000D01*
X0045929Y0051000D02*
X0050929Y0046000D01*
X0050929Y0016000D01*
X0190929Y0086000D02*
X0195929Y0081000D01*
X0240929Y0081000D01*
X0240929Y0091000D02*
X0205929Y0091000D01*
X0200929Y0096000D01*
X0200929Y0106000D01*
X0190929Y0106000D02*
X0190929Y0086000D01*
X0210929Y0106000D02*
X0215929Y0101000D01*
X0240929Y0101000D01*
X0240929Y0111000D02*
X0225929Y0111000D01*
X0220929Y0106000D01*
X0240929Y0131000D02*
X0235929Y0136000D01*
X0220929Y0136000D01*
X0210929Y0136000D02*
X0210929Y0161000D01*
X0205929Y0166000D01*
X0185929Y0166000D01*
D19*
X0110929Y0186000D03*
X0160929Y0096000D03*
X0160929Y0086000D03*
M02*
